<?xml version="1.0" encoding="utf-8"?>
<!-- Generator: Adobe Illustrator 15.1.0, SVG Export Plug-In . SVG Version: 6.00 Build 0)  -->
<!DOCTYPE svg PUBLIC "-//W3C//DTD SVG 1.1//EN" "http://www.w3.org/Graphics/SVG/1.1/DTD/svg11.dtd">
<svg version="1.1" id="Layer_1" xmlns="http://www.w3.org/2000/svg" xmlns:xlink="http://www.w3.org/1999/xlink" x="0px" y="0px"
	 width="98.605px" height="47.5px" viewBox="0 8.5 98.605 47.5" enable-background="new 0 8.5 98.605 47.5" xml:space="preserve">
<path fill="#FFFFFF" d="M20.694,54.812c0.482,0,1.157-0.28,1.498-0.62l24.044-24.045c0.341-0.342,1.014-0.621,1.497-0.621h17.487
	c0.482,0,0.598-0.279,0.257-0.62l-7.94-7.939c-0.342-0.34-1.015-0.62-1.498-0.62H34.843c-0.482,0-1.156,0.28-1.498,0.62
	L1.568,52.741c-0.341,0.342-0.744,0.758-0.896,0.925c-0.151,0.166-0.58,0.702-0.656,0.795c-0.076,0.094,0.126,0.35,0.608,0.35h20.07
	V54.812z"/>
<path fill="#FFFFFF" d="M98.35,40.104c0.342-0.341,0.342-0.899,0-1.24L68.607,9.12c-0.342-0.34-1.016-0.62-1.499-0.62H45.912
	c-0.482,0-1.157,0.28-1.498,0.62l-7.939,7.939c-0.341,0.341-0.226,0.621,0.257,0.621h17.486c0.484,0,1.157,0.279,1.498,0.62
	l31.598,31.598c0.341,0.34,0.9,0.34,1.24,0L98.35,40.104z"/>
</svg>
