<?xml version="1.0" encoding="utf-8"?>
<!-- Generator: Adobe Illustrator 15.1.0, SVG Export Plug-In  -->
<!DOCTYPE svg PUBLIC "-//W3C//DTD SVG 1.1//EN" "http://www.w3.org/Graphics/SVG/1.1/DTD/svg11.dtd" [
	<!ENTITY ns_flows "http://ns.adobe.com/Flows/1.0/">
]>
<svg version="1.1"
	 xmlns="http://www.w3.org/2000/svg" xmlns:xlink="http://www.w3.org/1999/xlink" xmlns:a="http://ns.adobe.com/AdobeSVGViewerExtensions/3.0/"
	 x="0px" y="0px" width="229px" height="42px" viewBox="-2.872 0 229 42"
	 overflow="visible" enable-background="new -2.872 0 229 42" xml:space="preserve">
<defs>
</defs>
<path fill="#FFFFFF" d="M19.745,31.972c0,2.661-0.489,4.955-2.365,6.854c-1.876,1.902-3.689,2.859-6.342,2.859H9.671
	c-2.656,0-4.928-0.957-6.826-2.859C0.945,36.927,0,34.633,0,31.972V20.961c0-2.663,0.945-5.088,2.846-6.991
	c1.898-1.903,4.17-2.999,6.826-2.999h1.367c2.653,0,4.466,1.095,6.342,2.999c1.875,1.902,2.365,4.328,2.365,6.991V31.972z
	 M15.356,32.911V20.978c0-1.401-0.143-2.857-1.118-3.859c-0.98-1.006-1.819-1.759-3.205-1.759H9.677
	c-1.393,0-2.689,0.753-3.689,1.759c-0.997,1.002-1.6,2.458-1.6,3.859v10.977c0,1.402,0.604,2.721,1.6,3.721
	c1,1.011,2.296,1.622,3.689,1.622h1.357c1.386,0,2.225-0.611,3.205-1.622c0.975-1,1.118-2.319,1.118-3.721"/>
<path fill="#FFFFFF" d="M39.489,15.359h-5.707c-1.411,0-2.681,0.753-3.686,1.759c-1.014,1.007-1.577,2.467-1.577,3.873v20.694
	h-4.385V20.961c0-2.663,0.909-5.088,2.827-6.991c1.914-1.903,4.157-2.999,6.821-2.999h5.707V15.359z"/>
<path fill="#FFFFFF" d="M74.408,13.97c-1.911-1.903-3.706-2.999-6.367-2.999h-8.805v4.388h8.805c1.405,0,2.226,0.753,3.234,1.755
	c1.004,1.006,1.123,2.458,1.123,3.859v0.966h-6.521c-2.658,0-4.935,1.142-6.844,3.023c-1.896,1.878-2.848,4.251-2.848,6.913
	c0,2.034,0.56,3.888,1.666,5.477l-4.554-0.305c-1.407,0-2.567-0.49-3.571-1.5c-1.01-1.014-1.459-2.205-1.459-3.619V0h-4.387v31.952
	c0,2.67,0.795,4.964,2.708,6.869c1.912,1.906,4.043,2.865,6.709,2.865h23.492V20.961C76.789,18.298,76.324,15.873,74.408,13.97
	 M72.398,37.298h-6.497c-1.402,0-2.606-0.611-3.609-1.612c-1.005-1.002-1.509-2.259-1.509-3.653c0-1.394,0.504-2.917,1.509-3.901
	c1.003-0.979,2.207-1.803,3.609-1.803h6.497V37.298z"/>
<path fill="#FFFFFF" d="M103.115,41.686h-4.389V20.992c0-1.406-0.788-2.866-1.784-3.873c-0.99-1.006-2.474-1.759-3.862-1.759h-7.519
	v26.326h-4.388V10.972h11.913c2.651,0,5.108,1.095,7.004,2.999c1.896,1.902,3.024,4.328,3.024,6.991V41.686z"/>
<path fill="#FFFFFF" d="M127.246,41.686h-11.321c-2.657,0-5.411-0.957-7.302-2.859c-1.902-1.899-3.314-4.193-3.314-6.854V20.961
	c0-2.663,1.412-5.088,3.3-6.991c1.891-1.903,4.638-2.999,7.285-2.999h6.968V0h4.385V41.686z M122.861,37.298V15.359h-6.934
	c-1.393,0-2.073,0.753-3.062,1.759c-0.994,1.002-0.976,2.458-0.976,3.859v10.977c0,1.402-0.019,2.721,0.976,3.721
	c0.989,1.011,1.67,1.622,3.062,1.622H122.861z"/>
<path fill="#FFFFFF" d="M151.382,31.972c0,2.661-0.679,4.955-2.558,6.854c-1.872,1.902-3.886,2.859-6.542,2.859h-1.363
	c-2.652,0-4.735-0.957-6.634-2.859c-1.893-1.899-2.648-4.193-2.648-6.854V20.961c0-2.663,0.756-5.088,2.648-6.991
	c1.898-1.903,3.981-2.999,6.634-2.999h1.363c2.656,0,4.67,1.095,6.542,2.999c1.879,1.902,2.558,4.328,2.558,6.991V31.972z
	 M146.99,32.911V20.978c0-1.401-0.33-2.857-1.311-3.859c-0.979-1.006-2.012-1.759-3.397-1.759h-1.355c-1.393,0-2.5,0.753-3.5,1.759
	c-0.996,1.002-1.403,2.458-1.403,3.859v10.977c0,1.402,0.407,2.721,1.403,3.721c1,1.011,2.107,1.622,3.5,1.622h1.355
	c1.386,0,2.418-0.611,3.397-1.622c0.98-1,1.311-2.319,1.311-3.721"/>
<path fill="#FFFFFF" d="M190.871,10.972v20.974c0,1.408-0.451,2.726-1.427,3.73c-0.979,1.009-2.12,1.622-3.517,1.622h-1.347
	c-1.394,0-2.384-0.613-3.388-1.622c-0.993-1.004-1.292-2.322-1.292-3.73V10.972h-14.874c-2.664,0-4.712,1.095-6.625,2.999
	c-1.917,1.902-2.633,4.328-2.633,6.991v20.725h4.389V20.992c0-1.406,0.368-2.866,1.386-3.873c0.999-1.006,2.068-1.759,3.483-1.759
	h10.485v16.613c0,2.661,0.641,4.955,2.536,6.854c1.902,1.902,3.866,2.859,6.519,2.859h1.369c2.655,0,4.774-0.957,6.656-2.859
	c1.87-1.899,2.666-4.193,2.666-6.854v-21H190.871z"/>
<path fill="#FFFFFF" d="M204.036,8.775h-4.388V4.388h4.388V8.775z M204.036,41.686h-4.388V10.972h4.388V41.686z"/>
<path fill="#FFFFFF" d="M225.974,41.686h-19.747v-4.739c0-2.398,0.961-4.5,2.102-6.327c0.916-1.405,2.557-2.832,4.54-4.274
	c1.818-1.288,3.765-2.833,5.626-4.125c1.86-1.293,2.893-2.474,2.893-6.861h-12.963v-4.388h17.55v5.02
	c0,2.548-0.551,4.748-1.648,6.609c-0.913,1.48-2.319,2.963-4.218,4.444c-1.9,1.331-3.79,2.776-5.675,4.102
	c-1.885,1.332-2.829,3.958-2.829,6.152h14.37V41.686z"/>
</svg>
